# xmcd
#
# Track frame offsets:
#	150
#	13887
#	28273
#	40234
#	54771
#	71659
#	85240
#	100016
#	121490
#	142727
#	165478
#	184098
#
# Disc length: 2698 seconds
#
# Revision: 1
# Processed by: cddbd v1.5.2PL0 Copyright (c) Steve Scherf et al.
# Submitted via: audiograbber 1.83.01
#
DISCID=970a880c
DTITLE=Various Artist - TM Century Hit Disc HC201004
DYEAR=2010
DGENRE=Country
TTITLE0=Lee Allen - Settle Down
TTITLE1=Ken Domash - Countrified
TTITLE2=Matt Stillwell - Dirt Road Dancing
TTITLE3=Reba McEntire - I Keep On Loving You
TTITLE4=Lynyrd Skynyrd - That Ain't My America
TTITLE5=Band Perry - Hip To My Heart
TTITLE6=Alicia Keys Feat. Beyonce - Put It In A Love Song
TTITLE7=James Fortune and Fiya - Encore
TTITLE8=Usher - There Goes My Baby
TTITLE9=Joe - Worst Case Scenario
TTITLE10=Dru Hill - Love MD
TTITLE11=Michael Bule - Haven't Met You Yet
EXTD=
EXTT0=
EXTT1=
EXTT2=
EXTT3=
EXTT4=
EXTT5=
EXTT6=
EXTT7=
EXTT8=
EXTT9=
EXTT10=
EXTT11=
PLAYORDER=
